<svg width="14" height="12" viewBox="0 0 14 12" fill="none" xmlns="http://www.w3.org/2000/svg">
<path d="M11.8516 1.61991C10.9591 1.21741 10.0025 0.919911 9.00204 0.750744C8.99313 0.749034 8.9839 0.750136 8.97565 0.753899C8.96739 0.757661 8.96051 0.763898 8.95595 0.771744C8.83345 0.986994 8.69695 1.26758 8.60129 1.48924C7.54026 1.33072 6.46157 1.33072 5.40054 1.48924C5.29398 1.24358 5.17382 1.00404 5.04062 0.771744C5.0361 0.763801 5.02927 0.757423 5.02104 0.753463C5.01281 0.749502 5.00356 0.748147 4.99454 0.749578C3.9947 0.918744 3.03804 1.21624 2.14495 1.61933C2.13727 1.62255 2.13076 1.62805 2.12629 1.63508C0.310953 4.30383 -0.18663 6.90666 0.0577862 9.47683C0.0584664 9.48312 0.0604203 9.48921 0.0635291 9.49473C0.0666379 9.50024 0.0708366 9.50507 0.0758696 9.50891C1.13543 10.2803 2.31723 10.868 3.57179 11.2472C3.58053 11.2499 3.58989 11.2499 3.59863 11.2472C3.60737 11.2445 3.61509 11.2392 3.62079 11.2321C3.89075 10.871 4.12998 10.488 4.33595 10.087C4.33881 10.0815 4.34046 10.0755 4.34078 10.0693C4.34111 10.0631 4.3401 10.057 4.33784 10.0512C4.33557 10.0455 4.33209 10.0403 4.32764 10.036C4.32319 10.0317 4.31787 10.0284 4.31204 10.0263C3.93521 9.88442 3.57009 9.71317 3.22004 9.51416C3.21375 9.51057 3.20845 9.50547 3.20461 9.49933C3.20078 9.49319 3.19853 9.48619 3.19806 9.47896C3.1976 9.47173 3.19894 9.4645 3.20196 9.45792C3.20498 9.45134 3.20959 9.44561 3.21537 9.44124C3.28887 9.38699 3.36237 9.33041 3.43237 9.27383C3.43867 9.26874 3.44626 9.2655 3.45429 9.26447C3.46233 9.26344 3.47049 9.26466 3.47787 9.26799C5.76862 10.297 8.24954 10.297 10.5135 9.26799C10.5209 9.26446 10.5291 9.26308 10.5372 9.26401C10.5454 9.26494 10.5531 9.26814 10.5595 9.27324C10.6295 9.33041 10.7025 9.38699 10.7765 9.44124C10.7824 9.44552 10.7871 9.45117 10.7902 9.4577C10.7933 9.46422 10.7947 9.47142 10.7944 9.47864C10.794 9.48587 10.7919 9.49289 10.7882 9.49909C10.7845 9.50529 10.7793 9.51047 10.773 9.51416C10.4242 9.71483 10.0614 9.88458 9.68045 10.0257C9.6746 10.0279 9.66927 10.0312 9.66482 10.0356C9.66037 10.0399 9.65689 10.0452 9.65463 10.051C9.65237 10.0568 9.65137 10.063 9.65169 10.0692C9.65202 10.0754 9.65367 10.0815 9.65654 10.087C9.86654 10.4877 10.1069 10.8692 10.3711 11.2315C10.3766 11.2389 10.3843 11.2445 10.393 11.2474C10.4018 11.2503 10.4113 11.2505 10.4201 11.2478C11.6768 10.8696 12.8606 10.2817 13.9213 9.50891C13.9265 9.50529 13.9308 9.50061 13.934 9.49518C13.9372 9.48975 13.9393 9.48369 13.94 9.47741C14.2316 6.50591 13.4511 3.92408 11.8697 1.63624C11.8658 1.62881 11.8594 1.62301 11.8516 1.61991ZM4.67837 7.91174C3.98887 7.91174 3.42012 7.28816 3.42012 6.52341C3.42012 5.75808 3.97779 5.13508 4.67837 5.13508C5.3842 5.13508 5.9477 5.76333 5.93662 6.52341C5.93662 7.28874 5.37895 7.91174 4.67837 7.91174ZM9.33045 7.91174C8.64037 7.91174 8.0722 7.28816 8.0722 6.52341C8.0722 5.75808 8.62929 5.13508 9.33045 5.13508C10.0363 5.13508 10.5998 5.76333 10.5887 6.52341C10.5887 7.28874 10.0369 7.91174 9.33045 7.91174Z" fill="white" fill-opacity="0.5"/>
</svg>
