<svg width="185" height="65" viewBox="0 0 185 65" fill="none" xmlns="http://www.w3.org/2000/svg">
<rect x="35.3605" width="9" height="57" rx="4.5" transform="rotate(38.3424 35.3605 0)" fill="#35C801"/>
<rect x="34.0623" y="19.373" width="9" height="25" rx="4.5" transform="rotate(38.3424 34.0623 19.373)" fill="#35C801"/>
<rect x="37.7012" y="32.7793" width="9" height="33" rx="4.5" transform="rotate(38.3424 37.7012 32.7793)" fill="#35C801"/>
<path d="M74.4052 29.0993L68.1412 45.7793H64.9732L58.6852 29.0993H61.6132L66.5572 42.9713L71.5252 29.0993H74.4052ZM78.0853 30.8033C77.5893 30.8033 77.1733 30.6353 76.8373 30.2993C76.5013 29.9633 76.3333 29.5473 76.3333 29.0513C76.3333 28.5553 76.5013 28.1393 76.8373 27.8033C77.1733 27.4673 77.5893 27.2993 78.0853 27.2993C78.5653 27.2993 78.9733 27.4673 79.3093 27.8033C79.6453 28.1393 79.8133 28.5553 79.8133 29.0513C79.8133 29.5473 79.6453 29.9633 79.3093 30.2993C78.9733 30.6353 78.5653 30.8033 78.0853 30.8033ZM79.4293 32.5553V45.7793H76.6933V32.5553H79.4293ZM87.8214 45.9953C86.7814 45.9953 85.8454 45.8113 85.0134 45.4433C84.1974 45.0593 83.5494 44.5473 83.0694 43.9073C82.5894 43.2513 82.3334 42.5233 82.3014 41.7233H85.1334C85.1814 42.2833 85.4454 42.7553 85.9254 43.1393C86.4214 43.5073 87.0374 43.6913 87.7734 43.6913C88.5414 43.6913 89.1334 43.5473 89.5494 43.2593C89.9814 42.9553 90.1974 42.5713 90.1974 42.1073C90.1974 41.6113 89.9574 41.2433 89.4774 41.0033C89.0134 40.7633 88.2694 40.4993 87.2454 40.2113C86.2534 39.9393 85.4454 39.6753 84.8214 39.4193C84.1974 39.1633 83.6534 38.7713 83.1894 38.2433C82.7414 37.7153 82.5174 37.0193 82.5174 36.1553C82.5174 35.4513 82.7254 34.8113 83.1414 34.2353C83.5574 33.6433 84.1494 33.1793 84.9174 32.8433C85.7014 32.5073 86.5974 32.3393 87.6054 32.3393C89.1094 32.3393 90.3174 32.7233 91.2294 33.4913C92.1574 34.2433 92.6534 35.2753 92.7174 36.5873H89.9814C89.9334 35.9953 89.6934 35.5233 89.2614 35.1713C88.8294 34.8193 88.2454 34.6433 87.5094 34.6433C86.7894 34.6433 86.2374 34.7793 85.8534 35.0513C85.4694 35.3233 85.2774 35.6833 85.2774 36.1313C85.2774 36.4833 85.4054 36.7793 85.6614 37.0193C85.9174 37.2593 86.2294 37.4513 86.5974 37.5953C86.9654 37.7233 87.5094 37.8913 88.2294 38.0993C89.1894 38.3553 89.9734 38.6193 90.5814 38.8913C91.2054 39.1473 91.7414 39.5313 92.1894 40.0433C92.6374 40.5553 92.8694 41.2353 92.8854 42.0833C92.8854 42.8353 92.6774 43.5073 92.2614 44.0993C91.8454 44.6913 91.2534 45.1553 90.4854 45.4913C89.7334 45.8273 88.8454 45.9953 87.8214 45.9953ZM97.2337 30.8033C96.7377 30.8033 96.3217 30.6353 95.9857 30.2993C95.6497 29.9633 95.4817 29.5473 95.4817 29.0513C95.4817 28.5553 95.6497 28.1393 95.9857 27.8033C96.3217 27.4673 96.7377 27.2993 97.2337 27.2993C97.7137 27.2993 98.1217 27.4673 98.4577 27.8033C98.7937 28.1393 98.9617 28.5553 98.9617 29.0513C98.9617 29.5473 98.7937 29.9633 98.4577 30.2993C98.1217 30.6353 97.7137 30.8033 97.2337 30.8033ZM98.5777 32.5553V45.7793H95.8417V32.5553H98.5777ZM105.362 34.7873V42.1073C105.362 42.6033 105.474 42.9633 105.698 43.1873C105.938 43.3953 106.338 43.4993 106.898 43.4993H108.578V45.7793H106.418C105.186 45.7793 104.242 45.4913 103.586 44.9153C102.93 44.3393 102.602 43.4033 102.602 42.1073V34.7873H101.042V32.5553H102.602V29.2673H105.362V32.5553H108.578V34.7873H105.362ZM128.668 29.0993V45.7793H125.932V34.3553L120.844 45.7793H118.948L113.836 34.3553V45.7793H111.1V29.0993H114.052L119.908 42.1793L125.74 29.0993H128.668ZM135 34.5233C135.464 33.8833 136.096 33.3633 136.896 32.9633C137.712 32.5473 138.616 32.3393 139.608 32.3393C140.776 32.3393 141.832 32.6193 142.776 33.1793C143.72 33.7393 144.464 34.5393 145.008 35.5793C145.552 36.6033 145.824 37.7793 145.824 39.1073C145.824 40.4353 145.552 41.6273 145.008 42.6833C144.464 43.7233 143.712 44.5393 142.752 45.1313C141.808 45.7073 140.76 45.9953 139.608 45.9953C138.584 45.9953 137.672 45.7953 136.872 45.3953C136.088 44.9953 135.464 44.4833 135 43.8593V45.7793H132.264V28.0193H135V34.5233ZM143.04 39.1073C143.04 38.1953 142.848 37.4113 142.464 36.7553C142.096 36.0833 141.6 35.5793 140.976 35.2433C140.368 34.8913 139.712 34.7153 139.008 34.7153C138.32 34.7153 137.664 34.8913 137.04 35.2433C136.432 35.5953 135.936 36.1073 135.552 36.7793C135.184 37.4513 135 38.2433 135 39.1553C135 40.0673 135.184 40.8673 135.552 41.5553C135.936 42.2273 136.432 42.7393 137.04 43.0913C137.664 43.4433 138.32 43.6193 139.008 43.6193C139.712 43.6193 140.368 43.4433 140.976 43.0913C141.6 42.7233 142.096 42.1953 142.464 41.5073C142.848 40.8193 143.04 40.0193 143.04 39.1073ZM154.265 45.9953C153.017 45.9953 151.889 45.7153 150.881 45.1553C149.873 44.5793 149.081 43.7793 148.505 42.7553C147.929 41.7153 147.641 40.5153 147.641 39.1553C147.641 37.8113 147.937 36.6193 148.529 35.5793C149.121 34.5393 149.929 33.7393 150.953 33.1793C151.977 32.6193 153.121 32.3393 154.385 32.3393C155.649 32.3393 156.793 32.6193 157.817 33.1793C158.841 33.7393 159.649 34.5393 160.241 35.5793C160.833 36.6193 161.129 37.8113 161.129 39.1553C161.129 40.4993 160.825 41.6913 160.217 42.7313C159.609 43.7713 158.777 44.5793 157.721 45.1553C156.681 45.7153 155.529 45.9953 154.265 45.9953ZM154.265 43.6193C154.969 43.6193 155.625 43.4513 156.233 43.1153C156.857 42.7793 157.361 42.2753 157.745 41.6033C158.129 40.9313 158.321 40.1153 158.321 39.1553C158.321 38.1953 158.137 37.3873 157.769 36.7313C157.401 36.0593 156.913 35.5553 156.305 35.2193C155.697 34.8833 155.041 34.7153 154.337 34.7153C153.633 34.7153 152.977 34.8833 152.369 35.2193C151.777 35.5553 151.305 36.0593 150.953 36.7313C150.601 37.3873 150.425 38.1953 150.425 39.1553C150.425 40.5793 150.785 41.6833 151.505 42.4673C152.241 43.2353 153.161 43.6193 154.265 43.6193ZM162.922 39.1073C162.922 37.7793 163.194 36.6033 163.738 35.5793C164.298 34.5553 165.05 33.7633 165.994 33.2033C166.954 32.6273 168.01 32.3393 169.162 32.3393C170.202 32.3393 171.106 32.5473 171.874 32.9633C172.658 33.3633 173.282 33.8673 173.746 34.4753V32.5553H176.506V45.7793H173.746V43.8113C173.282 44.4353 172.65 44.9553 171.85 45.3713C171.05 45.7873 170.138 45.9953 169.114 45.9953C167.978 45.9953 166.938 45.7073 165.994 45.1313C165.05 44.5393 164.298 43.7233 163.738 42.6833C163.194 41.6273 162.922 40.4353 162.922 39.1073ZM173.746 39.1553C173.746 38.2433 173.554 37.4513 173.17 36.7793C172.802 36.1073 172.314 35.5953 171.706 35.2433C171.098 34.8913 170.442 34.7153 169.738 34.7153C169.034 34.7153 168.378 34.8913 167.77 35.2433C167.162 35.5793 166.666 36.0833 166.282 36.7553C165.914 37.4113 165.73 38.1953 165.73 39.1073C165.73 40.0193 165.914 40.8193 166.282 41.5073C166.666 42.1953 167.162 42.7233 167.77 43.0913C168.394 43.4433 169.05 43.6193 169.738 43.6193C170.442 43.6193 171.098 43.4433 171.706 43.0913C172.314 42.7393 172.802 42.2273 173.17 41.5553C173.554 40.8673 173.746 40.0673 173.746 39.1553Z" fill="#35C801"/>
<path d="M181.204 45.9473C180.708 45.9473 180.292 45.7793 179.956 45.4433C179.62 45.1073 179.452 44.6913 179.452 44.1953C179.452 43.6993 179.62 43.2833 179.956 42.9473C180.292 42.6113 180.708 42.4433 181.204 42.4433C181.684 42.4433 182.092 42.6113 182.428 42.9473C182.764 43.2833 182.932 43.6993 182.932 44.1953C182.932 44.6913 182.764 45.1073 182.428 45.4433C182.092 45.7793 181.684 45.9473 181.204 45.9473Z" fill="#FF0202"/>
</svg>
