<svg width="14" height="14" viewBox="0 0 14 14" fill="none" xmlns="http://www.w3.org/2000/svg">
<path fill-rule="evenodd" clip-rule="evenodd" d="M5.28854 0.583008C4.94818 0.583085 4.62179 0.718367 4.38117 0.959094C4.14056 1.19982 4.00542 1.52627 4.0055 1.86663C4.00558 2.20699 4.14086 2.53338 4.38158 2.774C4.62231 3.01462 4.94876 3.14975 5.28912 3.14967H6.57246V1.86634C6.57215 1.52607 6.43684 1.19983 6.19624 0.959229C5.95563 0.718624 5.62939 0.583317 5.28912 0.583008H5.28854ZM5.28854 4.00542H1.86671C1.52635 4.00542 1.19993 4.14063 0.959254 4.3813C0.718582 4.62198 0.583374 4.9484 0.583374 5.28876C0.583374 5.62912 0.718582 5.95554 0.959254 6.19621C1.19993 6.43688 1.52635 6.57209 1.86671 6.57209H5.28854C5.6289 6.57209 5.95532 6.43688 6.19599 6.19621C6.43667 5.95554 6.57187 5.62912 6.57187 5.28876C6.57187 4.9484 6.43667 4.62198 6.19599 4.3813C5.95532 4.14063 5.6289 4.00542 5.28854 4.00542ZM13.4167 5.28817C13.4167 4.94781 13.2815 4.62139 13.0408 4.38072C12.8002 4.14005 12.4737 4.00484 12.1334 4.00484C11.793 4.00484 11.4666 4.14005 11.2259 4.38072C10.9852 4.62139 10.85 4.94781 10.85 5.28817V6.57151H12.1334C12.4737 6.57151 12.8002 6.4363 13.0408 6.19563C13.2815 5.95496 13.4167 5.62854 13.4167 5.28817ZM9.99429 5.28817V1.86634C9.99429 1.52598 9.85908 1.19956 9.61841 0.958887C9.37774 0.718216 9.05132 0.583008 8.71096 0.583008C8.3706 0.583008 8.04418 0.718216 7.8035 0.958887C7.56283 1.19956 7.42762 1.52598 7.42762 1.86634V5.28817C7.42762 5.62854 7.56283 5.95496 7.8035 6.19563C8.04418 6.4363 8.3706 6.57151 8.71096 6.57151C9.05132 6.57151 9.37774 6.4363 9.61841 6.19563C9.85908 5.95496 9.99429 5.62854 9.99429 5.28817ZM8.71096 13.4163C9.05132 13.4163 9.37774 13.2811 9.61841 13.0405C9.85908 12.7998 9.99429 12.4734 9.99429 12.133C9.99429 11.7926 9.85908 11.4662 9.61841 11.2256C9.37774 10.9849 9.05132 10.8497 8.71096 10.8497H7.42762V12.133C7.42778 12.4733 7.56304 12.7997 7.80367 13.0403C8.04431 13.2809 8.37064 13.4162 8.71096 13.4163ZM8.71096 9.99334H12.1334C12.4737 9.99334 12.8002 9.85813 13.0408 9.61746C13.2815 9.37679 13.4167 9.05037 13.4167 8.71001C13.4167 8.36965 13.2815 8.04323 13.0408 7.80255C12.8002 7.56188 12.4737 7.42667 12.1334 7.42667H8.71154C8.37118 7.4266 8.04473 7.56173 7.804 7.80235C7.56327 8.04296 7.42799 8.36935 7.42792 8.70972C7.42784 9.05008 7.56297 9.37653 7.80359 9.61726C8.04421 9.85798 8.3706 9.99326 8.71096 9.99334ZM0.583374 8.71059C0.583374 9.05095 0.718582 9.37737 0.959254 9.61804C1.19993 9.85872 1.52635 9.99392 1.86671 9.99392C2.20707 9.99392 2.53349 9.85872 2.77416 9.61804C3.01483 9.37737 3.15004 9.05095 3.15004 8.71059V7.42726H1.86671C1.52635 7.42726 1.19993 7.56247 0.959254 7.80314C0.718582 8.04381 0.583374 8.37023 0.583374 8.71059ZM4.00579 8.71059V12.1324C4.00571 12.4728 4.14085 12.7992 4.38146 13.04C4.62208 13.2807 4.94847 13.416 5.28883 13.416C5.62919 13.4161 5.95564 13.281 6.19637 13.0404C6.4371 12.7998 6.57238 12.4734 6.57246 12.133V8.71117C6.57253 8.37081 6.4374 8.04436 6.19678 7.80364C5.95617 7.56291 5.62978 7.42763 5.28942 7.42755C4.94905 7.42747 4.6226 7.56261 4.38188 7.80322C4.14115 8.04384 4.00587 8.37023 4.00579 8.71059Z" fill="white" fill-opacity="0.5"/>
</svg>
