<svg width="14" height="12" viewBox="0 0 14 12" fill="none" xmlns="http://www.w3.org/2000/svg">
<path d="M13.7918 1.87976C13.3047 2.09559 12.7815 2.24142 12.2314 2.30734C12.799 1.96772 13.2236 1.4332 13.426 0.803508C12.8928 1.12025 12.3092 1.34321 11.7005 1.46267C11.2913 1.02568 10.7492 0.736032 10.1584 0.638701C9.56764 0.541371 8.96127 0.641803 8.43344 0.924406C7.9056 1.20701 7.48583 1.65597 7.2393 2.20159C6.99277 2.7472 6.93328 3.35895 7.07005 3.94184C5.98953 3.88759 4.9325 3.60675 3.96754 3.11754C3.00259 2.62833 2.15129 1.94169 1.46888 1.10217C1.23555 1.50467 1.10138 1.97134 1.10138 2.46834C1.10112 2.91576 1.2113 3.35632 1.42214 3.75094C1.63299 4.14555 1.93797 4.48203 2.31005 4.73051C1.87854 4.71678 1.45656 4.60018 1.07921 4.39042V4.42542C1.07917 5.05294 1.29623 5.66115 1.69357 6.14684C2.09091 6.63253 2.64405 6.9658 3.25913 7.09009C2.85884 7.19843 2.43916 7.21438 2.0318 7.13676C2.20534 7.6767 2.54338 8.14886 2.99859 8.48713C3.45381 8.82541 4.00342 9.01286 4.57046 9.02326C3.60787 9.77892 2.41906 10.1888 1.1953 10.187C0.97852 10.1871 0.761925 10.1744 0.546631 10.1491C1.78883 10.9478 3.23483 11.3717 4.71163 11.37C9.7108 11.37 12.4437 7.22951 12.4437 3.63851C12.4437 3.52184 12.4408 3.40401 12.4355 3.28734C12.9671 2.90291 13.426 2.42686 13.7906 1.88151L13.7918 1.87976Z" fill="white" fill-opacity="0.5"/>
</svg>
